<?xml version="1.0" standalone="no"?>
<!DOCTYPE svg PUBLIC "-//W3C//DTD SVG 20010904//EN"
 "http://www.w3.org/TR/2001/REC-SVG-20010904/DTD/svg10.dtd">
<svg version="1.0" xmlns="http://www.w3.org/2000/svg"
 width="367.000000pt" height="367.000000pt" viewBox="0 0 367.000000 367.000000"
 preserveAspectRatio="xMidYMid meet">
<metadata>
Created by potrace 1.14, written by Peter Selinger 2001-2017
</metadata>
<g transform="translate(0.000000,367.000000) scale(0.100000,-0.100000)"
fill="#000000" stroke="none">
<path d="M771 2758 c-451 -45 -762 -424 -762 -928 0 -123 7 -187 32 -284 47
-187 144 -342 292 -471 60 -52 192 -116 297 -144 93 -24 310 -23 405 3 160 43
306 148 392 282 16 23 93 172 93 178 0 6 -78 46 -90 46 -4 0 -14 -17 -21 -37
-18 -57 -96 -168 -154 -221 -57 -52 -140 -96 -219 -117 -65 -18 -223 -13 -292
9 -109 34 -222 127 -300 246 -65 101 -99 195 -129 365 -7 40 -7 280 0 330 33
224 85 357 192 485 34 41 138 107 201 129 116 40 242 33 342 -19 71 -37 151
-125 198 -221 39 -80 102 -256 102 -286 0 -11 12 -13 52 -11 l53 3 -4 225 c-4
231 -7 377 -10 395 -1 8 -37 11 -87 6 -6 -1 -23 -19 -38 -42 l-27 -40 -43 25
c-127 74 -309 110 -475 94z"/>
<path d="M1834 2721 c-2 -2 -4 -21 -4 -42 0 -37 2 -39 43 -49 136 -35 180 -65
192 -133 3 -18 5 -333 3 -702 -3 -575 -5 -673 -18 -693 -23 -35 -96 -57 -197
-61 -20 -1 -23 -6 -23 -46 l0 -45 368 2 367 3 1 43 c2 38 -1 42 -22 43 -13 1
-27 2 -31 3 -5 1 -24 6 -43 10 -64 15 -107 43 -121 80 -11 26 -14 106 -14 358
l0 323 418 2 417 2 0 -334 c0 -292 -2 -339 -17 -369 -24 -52 -74 -70 -200 -75
-20 -1 -23 -6 -23 -46 l0 -45 369 0 369 0 -1 45 c0 39 -3 45 -22 45 -40 0
-137 30 -164 51 -14 11 -31 35 -37 52 -7 21 -9 254 -8 697 1 366 2 675 3 687
3 52 74 91 196 106 27 3 30 7 32 42 1 22 -2 42 -6 45 -7 4 -664 5 -718 1 -9
-1 -13 -18 -13 -48 0 -25 3 -44 6 -41 6 7 125 -25 167 -44 15 -7 36 -31 47
-54 19 -37 20 -61 20 -322 l0 -282 -418 0 -417 0 1 298 c1 199 5 306 12 325
17 39 112 77 207 82 6 0 10 20 10 44 l0 45 -363 0 c-200 1 -366 -1 -368 -3z"/>
</g>
</svg>
